<?xml version="1.0" standalone="no"?>
<!DOCTYPE svg PUBLIC "-//W3C//DTD SVG 1.1//EN" "http://www.w3.org/Graphics/SVG/1.1/DTD/svg11.dtd" >
<!--
2013-9-30: Created.
-->
<svg>
<metadata>
Created by iconfont
</metadata>
<defs>

<font id="iconfont" horiz-adv-x="1024" >
  <font-face
    font-family="iconfont"
    font-weight="500"
    font-stretch="normal"
    units-per-em="1024"
    ascent="896"
    descent="-128"
  />
    <missing-glyph />
    
    <glyph glyph-name="xin" unicode="&#59153;" d="M769.28 768C672.64 768 588.16 712.96 544 632.32 500.48 712.96 415.36 768 318.08 768c-140.8 0-254.72-114.56-254.72-256 0-67.2 25.6-128 67.84-174.08l391.04-392.96C528.64-60.8 536.32-64 544-64c7.68 0 15.36 3.2 21.76 8.96l391.04 392.96C998.4 383.36 1024 444.8 1024 512 1024 653.44 910.08 768 769.28 768zM908.16 379.52 544 9.6 179.84 379.52C147.2 414.08 127.36 460.8 127.36 512c0 106.24 85.76 192 190.72 192C403.2 704 476.8 647.68 502.4 570.24 508.8 553.6 525.44 541.44 544 541.44c19.2 0 35.2 11.52 42.24 28.16l0 0C611.2 647.68 684.16 704 769.28 704c105.6 0 190.72-85.76 190.72-192C960.64 460.8 940.8 414.08 908.16 379.52z"  horiz-adv-x="1024" />

    
    <glyph glyph-name="7tiantuihuan" unicode="&#59025;" d="M911.872 445.952c-13.312 0-25.6 9.216-28.672 23.04C843.776 643.072 691.2 764.928 512 764.928S180.224 643.072 140.8 468.48c-3.584-15.872-19.456-25.6-34.816-22.016-15.872 3.584-25.6 19.456-22.016 34.816 45.568 201.216 221.696 342.016 428.544 342.016s382.976-140.8 428.544-342.016c3.584-15.872-6.144-31.232-22.016-34.816C915.968 445.952 913.92 445.952 911.872 445.952zM512-55.296c-206.848 0-382.976 140.8-428.544 342.016-3.584 15.872 6.144 31.232 22.016 34.816 15.872 3.584 31.744-6.144 34.816-22.016 39.424-174.592 192.512-296.448 371.2-296.448s331.776 121.856 371.2 296.448c3.584 15.872 19.456 25.6 34.816 22.016 15.872-3.584 25.6-19.456 22.016-34.816C894.976 84.992 718.336-55.296 512-55.296zM450.048 89.6c-4.096 0-8.704 1.024-12.8 3.072-14.848 7.168-20.992 24.576-13.824 38.912l192 402.432L339.968 534.016c-16.384 0-29.184 13.312-29.184 29.184 0 16.384 13.312 29.184 29.184 29.184l322.56 0c10.24 0 19.456-5.12 24.576-13.824 5.12-8.704 6.144-18.944 1.536-28.16l-211.968-444.416C471.552 95.744 461.312 89.6 450.048 89.6zM911.872 445.952c-5.12 0-10.24 1.024-14.848 4.096l-88.576 51.2c-13.824 8.192-18.944 26.112-10.752 39.936 8.192 13.824 26.112 18.944 39.936 10.752l63.488-36.864 36.864 63.488c8.192 13.824 26.112 18.944 39.936 10.752 13.824-8.192 18.944-26.112 10.752-39.936l-51.2-88.576C931.84 451.072 922.112 445.952 911.872 445.952zM60.928 174.592c-5.12 0-10.24 1.024-14.848 4.096-13.824 8.192-18.944 26.112-10.752 39.936l51.2 88.576c4.096 6.656 10.24 11.776 17.92 13.824 7.68 2.048 15.36 1.024 22.016-3.072l88.576-51.2c13.824-8.192 18.944-26.112 10.752-39.936-8.192-13.824-26.112-18.944-39.936-10.752L122.88 252.928 86.016 189.44C80.896 180.224 70.656 174.592 60.928 174.592z"  horiz-adv-x="1024" />

    
    <glyph glyph-name="ai66" unicode="&#59064;" d="M366.036116 172.029284c-38.862099 0-70.634734-31.823799-70.634734-70.637804 0-38.916335 31.773657-70.689992 70.634734-70.689992 38.916335 0 70.689992 31.773657 70.689992 70.689992C436.726108 140.205485 404.95245 172.029284 366.036116 172.029284M154.06847 737.299535l0-70.692039 70.688969 0 127.204124-268.479731-49.525973-84.766592c-3.464915-10.55745-7.034207-24.737404-7.034207-35.348066 0-38.862099 31.773657-70.635757 70.634734-70.635757l423.940408 0 0 70.635757-409.81162 0c-3.572362 0-7.036253 3.571339-7.036253 7.091512l0 3.51915 31.823799 60.029188 261.392312 0c28.202319 0 49.41955 14.180977 60.030212 35.347043l127.150912 229.614561c7.140631 7.142677 7.140631 10.610662 7.140631 17.699104 0 21.217231-14.179954 35.293831-35.346019 35.293831l-522.885931 0-31.828916 70.692039L154.06847 737.299535zM719.334627 172.029284c-38.862099 0-70.635757-31.823799-70.635757-70.637804 0-38.916335 31.774681-70.689992 70.635757-70.689992 38.868239 0 70.641897 31.773657 70.641897 70.689992C789.976524 140.205485 758.202866 172.029284 719.334627 172.029284"  horiz-adv-x="1024" />

    
    <glyph glyph-name="kehufuwu" unicode="&#58900;" d="M512 703.36c-122.24 0-221.44-99.2-221.44-221.44l0-181.76 0 0 0-33.28c0-29.44 26.24-53.12 55.04-53.12 29.44 0 53.12 24.32 53.12 53.12L398.72 360.32c0 29.44-24.32 53.12-53.12 53.12-8.32 0-16.64-1.92-23.68-5.76L321.92 481.92c0 104.32 85.12 189.44 189.44 189.44s189.44-85.12 189.44-189.44l0-74.24c-7.04 3.2-15.36 5.76-23.68 5.76-29.44 0-53.12-24.32-53.12-53.12l0-93.44c0-24.96 17.28-46.08 40.96-51.84-22.4-30.72-53.76-55.04-90.88-68.48-8.32-3.2-12.8-12.16-9.6-20.48 2.56-6.4 8.32-10.88 15.36-10.88 1.92 0 3.84 0 5.12 0.64 53.76 19.2 99.2 57.6 124.16 106.24 14.08 9.6 23.68 25.6 23.68 44.16L732.8 268.8l0 0L732.8 481.92C733.44 604.16 634.24 703.36 512 703.36z"  horiz-adv-x="1024" />

    
    <glyph glyph-name="jiantou9" unicode="&#58891;" d="M944.083879 606.463698c14.264888-18.286482 15.462157-41.208541 2.670829-51.196009l-417.191704-325.421604c-2.885723-2.261507-12.156878-7.828292-13.732769-9.578146-15.544021-17.181311-37.893029-22.338774-49.947576-11.461029l-392.908648 354.309538c-12.054547 10.887978-9.271154 33.666774 6.272867 50.889017 15.544021 17.21201 37.893029 22.349007 49.988508 11.471262l357.584118-322.443783 408.258241 318.463122C907.910005 631.483534 929.84969 624.739946 944.083879 606.463698z"  horiz-adv-x="1024" />

    
    <glyph glyph-name="zhengpinbaozhang2" unicode="&#59170;" d="M872.628454 220.349803c0-51.731198-161.163563-226.325655-358.14182-246.221798l-0.497327 0 0 0C314.524416-5.478526 151.371546 169.114908 151.371546 220.349803L151.371546 741.644493c15.917528 22.3838 171.609473 46.25958 341.726965 52.726875l19.398816-0.497327 17.409508 0.497327c171.112146-6.466272 326.804091-30.342052 342.721619-52.726875L872.628454 220.349803zM530.404162 831.677019l-17.906835 0-19.897166 0c-172.604126-6.466272-378.535289-26.860764-378.535289-89.037872l0-522.289344c0-78.094636 186.532347-261.641999 394.950144-283.528472l4.476965-0.497327 0.497327 0 0.497327 0 0.497327 0 4.476965 0.497327c209.9108 22.3838 390.473179 203.444529 390.473179 283.528472L909.934105 742.639147C909.935128 804.816255 704.002942 825.210747 530.404162 831.677019zM276.223089 242.733603 353.323071 242.733603 353.323071 497.412003 394.112056 497.412003 394.112056 242.733603 514.486634 242.733603 514.486634 565.060729 298.109562 565.060729 298.109562 602.367403 728.874399 602.367403 728.874399 565.060729 555.275619 565.060729 555.275619 440.70549 712.956871 440.70549 712.956871 403.897166 555.275619 403.897166 555.275619 242.733603 747.775888 242.733603 747.775888 205.426929 276.223089 205.426929Z"  horiz-adv-x="1024" />

    
    <glyph glyph-name="caidan1" unicode="&#58887;" d="M128 682.666667h768c12.8 0 21.333333 8.533333 21.333333 21.333333s-8.533333 21.333333-21.333333 21.333333H128c-12.8 0-21.333333-8.533333-21.333333-21.333333s8.533333-21.333333 21.333333-21.333333zM896 405.333333H128c-12.8 0-21.333333-8.533333-21.333333-21.333333s8.533333-21.333333 21.333333-21.333333h768c12.8 0 21.333333 8.533333 21.333333 21.333333s-8.533333 21.333333-21.333333 21.333333zM896 85.333333H128c-12.8 0-21.333333-8.533333-21.333333-21.333333s8.533333-21.333333 21.333333-21.333333h768c12.8 0 21.333333 8.533333 21.333333 21.333333s-8.533333 21.333333-21.333333 21.333333z"  horiz-adv-x="1024" />

    
    <glyph glyph-name="fangdajing" unicode="&#58935;" d="M921.3 22L738.1 205.2c51.3 62.6 82.1 142.5 82.1 229.6 0 200.1-162.8 363-363 363-200.1 0-363-162.8-363-363s162.8-363 363-363c87 0 167 30.8 229.6 82.1L870-29.3c7.1-7.1 16.4-10.6 25.7-10.6s18.6 3.5 25.7 10.6c14.1 14.2 14.1 37.2-0.1 51.3zM166.8 434.8c0 160.1 130.3 290.4 290.4 290.4s290.4-130.3 290.4-290.4-130.3-290.4-290.4-290.4-290.4 130.3-290.4 290.4z"  horiz-adv-x="1024" />

    
    <glyph glyph-name="weixin" unicode="&#59114;" d="M1024 276.48c0 143.36-138.24 256-307.2 256s-307.2-112.64-307.2-256 138.24-256 307.2-256c30.72 0 61.44 5.12 92.16 10.24l97.28-51.2-25.6 76.8c87.04 51.2 143.36 128 143.36 220.16z m-414.72 40.96c-30.72 0-51.2 20.48-51.2 51.2s20.48 51.2 51.2 51.2 51.2-20.48 51.2-51.2c0-25.6-25.6-51.2-51.2-51.2z m209.92 0c-30.72 0-51.2 20.48-51.2 51.2s20.48 51.2 51.2 51.2 51.2-20.48 51.2-51.2c0-25.6-25.6-51.2-51.2-51.2zM358.4 286.72c0 158.72 153.6 286.72 348.16 286.72h15.36c-40.96 133.12-179.2 235.52-353.28 235.52-204.8 0-368.64-138.24-368.64-307.2 0-107.52 66.56-204.8 168.96-256l-30.72-92.16L256 209.91999999999996c35.84-10.24 71.68-15.36 112.64-15.36h10.24c-15.36 30.72-20.48 61.44-20.48 92.16z m138.24 414.72c35.84 0 66.56-30.72 66.56-66.56s-30.72-66.56-66.56-66.56C460.8 573.44 430.08 604.1600000000001 430.08 640S460.8 701.44 496.64 701.44zM245.76 573.44c-35.84 0-61.44 30.72-61.44 66.56s30.72 66.56 66.56 66.56 61.44-30.72 61.44-66.56-30.72-66.56-66.56-66.56z"  horiz-adv-x="1024" />

    
    <glyph glyph-name="xiaoxi" unicode="&#58983;" d="M947.2 0H76.8c-42.496 0-76.8 34.304-76.8 76.8V691.2c0 42.496 34.304 76.8 76.8 76.8h870.4c42.496 0 76.8-34.304 76.8-76.8v-614.4c0-42.496-34.304-76.8-76.8-76.8zM76.8 716.8c-14.336 0-25.6-11.264-25.6-25.6v-614.4c0-14.336 11.264-25.6 25.6-25.6h870.4c14.336 0 25.6 11.264 25.6 25.6V691.2c0 14.336-11.264 25.6-25.6 25.6H76.8zM512.512 265.728c-12.8 0-25.6 4.608-35.84 14.336l-452.096 430.08c-10.24 9.728-10.752 26.112-1.024 36.352s26.112 10.752 36.352 1.024l452.096-430.08 448.512 433.152c10.24 9.728 26.624 9.728 36.352-0.512 9.728-10.24 9.728-26.624-0.512-36.352L547.84 280.064c-9.728-9.728-22.528-14.336-35.328-14.336z m-0.512 50.688z"  horiz-adv-x="1024" />

    
    <glyph glyph-name="shouji1" unicode="&#58901;" d="M760.32-128H263.68c-56.32 0-102.4 46.08-102.4 102.4V793.6c0 56.32 46.08 102.4 102.4 102.4h494.08c56.32 0 102.4-46.08 102.4-102.4v-819.2c2.56-56.32-43.52-102.4-99.84-102.4zM263.68 844.8c-28.16 0-51.2-23.04-51.2-51.2v-819.2c0-28.16 23.04-51.2 51.2-51.2h494.08c28.16 0 51.2 23.04 51.2 51.2V793.6c0 28.16-23.04 51.2-51.2 51.2H263.68zM593.92 734.72h-161.28c-15.36 0-25.6 10.24-25.6 25.6s10.24 25.6 25.6 25.6h161.28c15.36 0 25.6-10.24 25.6-25.6s-12.8-25.6-25.6-25.6zM186.88 133.12h647.68v-51.2H186.88zM512 7.68m-43.52 0a43.52 43.52 0 1 1 87.04 0 43.52 43.52 0 1 1-87.04 0Z"  horiz-adv-x="1024" />

    
    <glyph glyph-name="gantanhao-quan" unicode="&#59151;" d="M512-40c234.169 0 424 189.831 424 424S746.169 808 512 808 88 618.169 88 384s189.831-424 424-424z m0-88C229.23-128 0 101.23 0 384S229.23 896 512 896s512-229.23 512-512-229.23-512-512-512zM556 640c0 24.3-19.7 44-44 44s-44-19.7-44-44v-339.492c0-24.301 19.7-44 44-44s44 19.699 44 44V640z m-44-428c-35.346 0-64-28.654-64-64 0-35.346 28.654-64 64-64 35.346 0 64 28.654 64 64 0 35.346-28.654 64-64 64z"  horiz-adv-x="1024" />

    
    <glyph glyph-name="gongyingshang-wodedingdan" unicode="&#58904;" d="M756.5-15.19H289A74.26 74.26 0 0 0 214.83 59V668.77A74.25 74.25 0 0 0 289 742.94h467.5a74.25 74.25 0 0 0 74.17-74.17V59a74.26 74.26 0 0 0-74.17-74.19zM289 714.6a45.88 45.88 0 0 1-45.82-45.83V59A45.88 45.88 0 0 1 289 13.16h467.5A45.88 45.88 0 0 1 802.32 59V668.77a45.88 45.88 0 0 1-45.82 45.83zM295.79 529.99m15 0l372.43 0q15 0 15-15l0 0q0-15-15-15l-372.43 0q-15 0-15 15l0 0q0 15 15 15ZM295.79 418.93m15 0l372.43 0q15 0 15-15l0 0q0-15-15-15l-372.43 0q-15 0-15 15l0 0q0 15 15 15ZM295.79 307.87m15 0l264.68 0q15 0 15-15l0 0q0-15-15-15l-264.68 0q-15 0-15 15l0 0q0 15 15 15Z"  horiz-adv-x="1024" />

    
    <glyph glyph-name="gonganfuwu" unicode="&#59035;" d="M550.272 799.402667l227.285333-52.309334a42.666667 42.666667 0 0 0 33.109334-41.6v-8.704c0-24.96 17.237333-46.592 41.557333-52.224l10.666667-2.474666a42.666667 42.666667 0 0 0 33.109333-41.557334v-253.226666a341.333333 341.333333 0 0 0-202.837333-311.978667L512-45.098667l-181.162667 80.426667A341.333333 341.333333 0 0 0 128 347.306667V600.533333a42.666667 42.666667 0 0 0 33.066667 41.557334l10.666666 2.474666C196.138667 650.24 213.333333 671.872 213.333333 696.789333v8.704a42.666667 42.666667 0 0 0 33.109334 41.6l227.285333 52.309334a170.666667 170.666667 0 0 0 76.544 0z m-30.72-182.656a17.066667 17.066667 0 0 1-22.869333-7.765334l-59.904-121.429333-134.016-19.456a17.066667 17.066667 0 0 1-9.472-29.141333l96.981333-94.506667-22.912-133.461333a17.066667 17.066667 0 0 1 24.746667-18.005334L512 256l119.893333-63.018667a17.066667 17.066667 0 0 1 24.746667 18.005334l-22.912 133.461333 96.981333 94.506667a17.066667 17.066667 0 0 1-9.472 29.141333l-133.973333 19.456-59.946667 121.429333a17.066667 17.066667 0 0 1-7.765333 7.765334z"  horiz-adv-x="1024" />

    
    <glyph glyph-name="shouji" unicode="&#58926;" d="M722.051282 896 301.948718 896C258.625641 896 223.179487 860.553846 223.179487 817.230769L223.179487-49.230769C223.179487-92.553846 258.625641-128 301.948718-128L722.051282-128C765.374359-128 800.820513-92.553846 800.820513-49.230769L800.820513 817.230769C800.820513 860.553846 765.374359 896 722.051282 896ZM748.307692-49.230769C748.307692-63.409231 736.229744-75.487179 722.051282-75.487179L301.948718-75.487179C287.770256-75.487179 275.692308-63.409231 275.692308-49.230769L275.692308 3.282051 748.307692 3.282051 748.307692-49.230769ZM748.307692 55.794872 275.692308 55.794872 275.692308 712.205128 748.307692 712.205128 748.307692 55.794872ZM748.307692 764.717949 275.692308 764.717949 275.692308 817.230769C275.692308 831.409231 287.770256 843.487179 301.948718 843.487179L722.051282 843.487179C736.229744 843.487179 748.307692 831.409231 748.307692 817.230769L748.307692 764.717949Z"  horiz-adv-x="1024" />

    
    <glyph glyph-name="qie" unicode="&#58944;" d="M202.91179397 326.28661587C176.87625296 261.43611201 172.56850217 199.60093085999995 193.53809567 188.11291040000003 208.0445205 180.14053910999996 230.63119055 198.38041846 251.89152844 231.56027170000004 260.32724124 195.22126355 281.11910012 162.61570908 310.85110907 136.25860125999998 279.71777145 124.12333969999997 259.32144922 104.30028789999994 259.32144922 81.89340747000006 259.32144922 44.97804638000002 314.40579981 15.175150089999988 382.34354292 15.175150089999988 443.63832938 15.175150089999988 494.41492918 39.37684002000003 503.78451831 71.26426602000004L518.36491465 71.26426602000004C527.91737589 39.37684002000003 578.58302007 15.175150089999988 639.94972223 15.175150089999988 707.96246267 15.175150089999988 762.97284259 44.97907387999999 762.97284259 81.89340747000006 762.97284259 104.30028789999994 742.61247861 123.97848082999997 711.40619781 136.25860125999998 741.03238699 162.61570908 761.96705056 195.22023606000005 770.33290185 231.56027170000004 791.58810391 198.38041846 814.06998169 180.13951244999998 828.64935053 188.11291040000003 849.72476214 199.60093085999995 845.52385861 261.43611201 819.23866649 326.28661587 798.70159537 377.06218899 770.87124237 414.54979385 749.64891689 422.95160257 749.93657962 426.0388418 750.18725742 429.45278284 750.18725742 432.71981086 750.18725742 452.39800378 744.94563027 470.56699328 736.00650689 485.36210916 736.18629651 486.54563745 736.18629651 487.65930259 736.18629651 488.84385673 736.18629651 497.92886646 734.13772588 506.36766092 730.6200209 513.6578595 725.26949233 645.83584946 643.50544046 750.9375764399999 511.1127293 750.9375764399999 378.75289392 750.9375764399999 296.88199643 645.83482278 291.53146786 513.656832 288.08567773 506.25978781 285.96621893 497.78400759 285.96621893 488.73495612 285.96621893 487.54937449 285.96621893 486.43776352 286.11005111 485.25115357 277.34968985 470.56493913 272.1060069 452.39697629 272.1060069 432.64686768 272.1060069 429.34182725 272.28374233 426.0388418 272.50154438 422.80674372 251.35216125 414.47787735 223.41496265 377.0611615 202.91179397 326.28661587"  horiz-adv-x="1024" />

    
    <glyph glyph-name="caidan" unicode="&#58888;" d="M495.65696 396.84096H250.80832C115.79392 396.84096 5.95968 506.6752 5.95968 641.6896S115.79392 886.53824 250.80832 886.53824s244.8384-109.83424 244.8384-244.84864c0-1.1776-0.03072-2.34496-0.07168-3.51232l-0.04096-1.52576 0.12288-239.81056zM250.80832 845.57824c-112.42496 0-203.88864-91.46368-203.88864-203.88864s91.46368-203.88864 203.88864-203.88864h203.8784l-0.1024 199.22944 0.11264 4.6592c-0.01024 112.42496-91.46368 203.88864-203.88864 203.88864zM776.00768 396.84096H531.15904l0.12288 240.20992-0.04096 1.11616a99.95264 99.95264 0 0 0-0.07168 3.51232c0 135.0144 109.83424 244.84864 244.8384 244.84864s244.84864-109.824 244.84864-244.8384-109.83424-244.84864-244.84864-244.84864z m-203.86816 40.96h203.86816c112.42496 0 203.88864 91.46368 203.88864 203.88864S888.44288 845.57824 776.00768 845.57824c-112.42496 0-203.8784-91.46368-203.8784-203.88864l0.11264-4.2496-0.1024-199.63904zM247.98208-128C112.97792-128 3.14368-18.15552 3.14368 116.84864s109.83424 244.8384 244.84864 244.8384H492.8512l-0.13312-240.20992 0.04096-1.00352c0.04096-1.19808 0.08192-2.4064 0.08192-3.62496C492.83072-18.15552 382.99648-128 247.98208-128z m0 448.72704c-112.42496 0-203.88864-91.46368-203.88864-203.8784C44.10368 4.42368 135.55712-87.04 247.98208-87.04s203.88864 91.46368 203.88864 203.88864l-0.11264 4.17792 0.1024 199.70048h-203.8784zM773.20192-128c-135.0144 0-244.84864 109.84448-244.84864 244.84864 0 1.28 0.04096 2.53952 0.08192 3.79904l0.0512 1.37216-0.14336 239.6672h244.85888c135.0144 0 244.8384-109.83424 244.8384-244.8384S908.20608-128 773.20192-128z m-203.8784 448.72704l0.11264-199.22944-0.12288-4.64896C569.31328 4.42368 660.76672-87.04 773.20192-87.04c112.42496 0 203.8784 91.46368 203.8784 203.88864 0 112.42496-91.46368 203.8784-203.8784 203.8784h-203.8784z"  horiz-adv-x="1024" />

    
    <glyph glyph-name="dizhi" unicode="&#58994;" d="M512 832c211.776 0 384-174.272 384-388.48a379.264 379.264 0 0 0-101.44-259.584l-219.456-280.64a79.872 79.872 0 0 0-126.208-0.512l-223.872 283.2A388.224 388.224 0 0 0 128 443.52C128 657.728 300.224 832 512 832z m195.456-375.04c0 107.904-87.296 195.776-194.56 195.776-51.776 0-100.544-20.544-137.152-57.728a196.48 196.48 0 0 1-56.832-139.072c0.384-107.904 87.68-195.84 194.496-195.84a189.44 189.44 0 0 1 137.152 57.728c36.672 37.12 56.896 86.592 56.896 139.072z m-82.56 0c0-30.336-11.52-58.624-32.448-79.872a110.08 110.08 0 0 0-79.04-33.344c-61.824 0-112 50.56-112 112.64 0 30.272 11.52 58.624 32.384 79.808 21.76 21.504 49.92 33.344 79.616 33.344 29.888 0 57.92-11.648 79.04-33.024 21.12-21.312 32.768-49.6 32.512-79.616z"  horiz-adv-x="1024" />

    
    <glyph glyph-name="shu" unicode="&#59257;" d="M948.598857 523.194947c-13.257929 29.506975-37.806995 50.279026-67.160475 58.34164l50.390566 57.526066c27.894248 31.389855 34.325715 75.137131 16.769909 114.223257-17.218116 38.35651-53.425687 62.161634-94.518512 62.161634H293.633034L95.494744 589.16225c-7.219411-8.103546-13.061454-17.148531-17.387985-26.824895-14.522733-32.386553-11.20518-71.527937 8.623385-102.146221 13.400168-20.701443 32.724244-34.788248 54.831706-41.922725l-50.478571-62.469648C64.089539 324.480537 58.107303 281.475157 75.466635 243.610857c12.809721-27.920854 36.093984-47.975569 64.04349-56.431131l-48.426846-59.324012c-27.189191-31.544374-33.059887-75.16476-15.335236-113.844634 17.360355-37.920582 53.424663-61.458624 94.126586-61.458624h563.7884l198.165919 226.284271c27.894248 31.404181 34.325715 75.166807 16.769909 114.266235-13.257929 29.493672-37.806995 50.28005-67.160475 58.31401l50.390566 57.53937c27.894248 31.375529 34.325715 75.140201 16.769909 114.238605z m-813.611736-31.726522c-7.1355 11.011776-9.717296 24.156118-7.638966 36.347764h353.443115V585.355558H168.609825l151.088812 172.565919h534.380685c18.399009 0 34.099564-10.533893 42.049614-28.186913 6.376208-14.228021 7.809857-35.448279-7.416908-52.59681L707.595379 470.304449H173.214694c-21.319519 0-33.086493 13.257929-38.227573 21.163976z m719.092201-193.758548c18.399009 0 34.099564-10.560499 42.049614-28.203285 6.376208-14.212671 7.809857-35.446233-7.416908-52.580438L707.595379 10.077499H169.873606c-18.201511 0-33.847831 10.423376-41.854163 27.864572-3.733014 8.202806-5.36416 18.792981-3.510957 29.661495H567.094696v57.527089H163.103426l46.964544 57.525043h523.595059l100.753504 115.054179h19.662789z m34.632706 149.307239L707.595379 240.183811H169.873606c-18.511572 0-34.269433 10.224855-42.105896 27.417388-4.54961 9.885118-5.280249 20.222537-3.061726 30.109702h212.27012v57.527089H164.564704l46.486661 57.525043h522.611664l100.753504 115.054179h19.663812c18.399009 0 34.099564-10.533893 42.049615-28.202262 6.376208-14.213695 7.808834-35.434976-7.417932-52.597834z"  horiz-adv-x="1024" />

    
    <glyph glyph-name="shangcheng" unicode="&#58970;" d="M896-40.96H128c-22.528 0-40.96 18.432-40.96 40.96V768c0 22.528 18.432 40.96 40.96 40.96h768c22.528 0 40.96-18.432 40.96-40.96v-768c0-22.528-18.432-40.96-40.96-40.96zM128 768v-768h768V768H128zM512 343.04c-138.24 0-250.88 133.12-250.88 296.96 0 11.264 9.216 20.48 20.48 20.48s20.48-9.216 20.48-20.48c0-141.312 94.208-256 209.92-256s209.92 114.688 209.92 256c0 11.264 9.216 20.48 20.48 20.48s20.48-9.216 20.48-20.48c0-163.328-112.64-296.96-250.88-296.96z"  horiz-adv-x="1024" />

    
    <glyph glyph-name="IE" unicode="&#59514;" d="M811.35546875 510.9140625c14.32617188 32.43164063 28.21289063 79.71679688 28.21289063 115.83984375 0 95.88867188-105.02929688 129.7265625-276.41601563 50.88867188-141.85546875 9.4921875-278.4375-97.11914063-312.5390625-245.83007813 40.69335938 45.96679688 103.18359375 108.45703125 160.83984375 133.33007813C339.82226562 501.50976563 278.82617187 420.9140625 232.5078125 336.890625c-27.33398438-50.00976563-58.0078125-130.78125-58.0078125-191.16210938 0-129.99023438 122.43164063-114.08203125 237.65625-55.37109374 41.39648438-20.30273438 87.71484375-20.56640625 134.03320313-20.56640625 128.05664063 0 242.9296875 71.54296875 285.82031249 192.48046874H672.75195313c-69.2578125-116.80664063-259.453125-69.87304688-259.45312501 62.57812501h433.47656251c8.4375 57.48046875-2.19726563 126.2109375-35.41992188 186.06445312zM259.578125 264.20507812000005c23.37890625-67.41210938 70.83984375-126.38671875 132.1875-162.59765624-116.98242188-64.51171875-228.42773438-38.3203125-132.1875 162.59765624z m152.9296875 143.52539063c2.63671875 72.68554688 66.26953125 125.06835938 137.109375 125.06835938 70.40039063 0 134.47265625-52.3828125 137.109375-125.06835938h-274.21875z m243.28125 247.32421875c28.21289063 13.53515625 63.984375 29.00390625 95.625 29.00390625 41.39648438 0 71.54296875-28.65234375 71.54296875-70.83984375 0-26.3671875-9.75585938-64.59960938-19.24804688-89.47265625-34.54101563 55.81054688-86.92382813 107.578125-147.91992187 131.30859375z"  horiz-adv-x="1024" />

    
    <glyph glyph-name="dianshi" unicode="&#58886;" d="M932.864 118.101333h-829.44c-15.36 0-27.989333 12.629333-27.989333 27.989334V600.746667c0 15.36 12.629333 27.989333 27.989333 27.989333h829.44c15.36 0 27.989333-12.629333 27.989333-27.989333v-454.997334c0-15.018667-12.629333-27.648-27.989333-27.648zM103.424 611.669333c-5.802667 0-10.922667-4.778667-10.922667-10.922666v-454.997334c0-5.802667 4.778667-10.922667 10.922667-10.922666h829.44c5.802667 0 10.922667 4.778667 10.922667 10.922666V600.746667c0 5.802667-4.778667 10.922667-10.922667 10.922666h-829.44zM632.832 79.530667h-210.944c-15.36 0-27.989333 12.629333-27.989333 27.989333s12.629333 27.989333 27.989333 27.989333h210.944c15.36 0 27.989333-12.629333 27.989333-27.989333s-12.629333-27.989333-27.989333-27.989333z m-211.285333 38.570666c-5.802667 0-10.922667-4.778667-10.922667-10.922666s4.778667-10.922667 10.922667-10.922667h210.944c5.802667 0 10.922667 4.778667 10.922666 10.922667s-4.778667 10.922667-10.922666 10.922666h-210.944zM787.456-24.576H285.013333c-15.36 0-27.989333 12.629333-27.989333 27.989333v53.589334c0 15.36 12.629333 27.989333 27.989333 27.989333h502.442667c15.36 0 27.989333-12.629333 27.989333-27.989333v-53.589334c-0.341333-15.701333-12.629333-27.989333-27.989333-27.989333z m-502.442667 92.16c-5.802667 0-10.922667-4.778667-10.922666-10.922667v-53.589333c0-5.802667 4.778667-10.922667 10.922666-10.922667h502.442667c5.802667 0 10.922667 4.778667 10.922667 10.922667v53.589333c0 5.802667-4.778667 10.922667-10.922667 10.922667H285.013333zM402.432 611.669333c-1.706667 0-3.754667 0.682667-5.12 1.706667L230.4 744.789333c-3.754667 3.072-4.437333 8.192-1.365333 11.946667s8.192 4.437333 11.946666 1.365333l166.570667-131.413333c3.754667-3.072 4.437333-8.192 1.365333-11.946667-1.706667-2.048-4.096-3.072-6.485333-3.072zM636.928 613.717333c-2.389333 0-5.12 1.024-6.826667 3.413334-3.072 3.754667-2.389333 9.216 1.365334 11.946666l166.570666 131.413334c3.754667 3.072 9.216 2.389333 11.946667-1.365334 3.072-3.754667 2.389333-9.216-1.365333-11.946666l-166.570667-131.413334c-1.365333-1.365333-3.072-2.048-5.12-2.048z"  horiz-adv-x="1024" />

    
    <glyph glyph-name="shu1" unicode="&#58897;" d="M789.9 709.2h-2.6l-2.4-1c-4.7-2-16.4-6-23.2-6h-0.5c-7 0.2-15.6 1.9-22.4 3.5v6.6c0 11.6-9.4 21-21 21H234.1c-11.6 0-21-9.4-21-21v-656.5c0-11.6 9.4-21 21-21h483.7c11.6 0 21 9.4 21 21v5.1c6.4 0.7 14.4 1.3 21.5 1 15.6-0.7 27.2-2.8 27.3-2.8l1.2-0.2h1.2c11.6 0 21 9.4 21 21V688.2c-0.1 11.6-9.5 21-21.1 21z m-77.1-648.5H239.1V707.3h473.7v-646.6z m72.1 25c-5.5 0.7-13.8 1.7-23.6 2.1-7.6 0.3-15.6-0.2-22.5-0.8V679.1c6.9-1.4 14.7-2.6 21.6-2.8 8.1-0.2 17.5 2.1 24.5 4.3v-594.9zM338.9 434h274c7.2 0 13 5.8 13 13s-5.8 13-13 13h-274c-7.2 0-13-5.8-13-13s5.9-13 13-13zM338.9 308h274c7.2 0 13 5.8 13 13s-5.8 13-13 13h-274c-7.2 0-13-5.8-13-13s5.9-13 13-13z"  horiz-adv-x="1024" />

    
    <glyph glyph-name="shu_huabanfuben" unicode="&#58894;" d="M508.19-31a12 12 0 0 0-3.93 0.66L229.46 65a64.27 64.27 0 0 0-62.06 64.16V690.75a64.26 64.26 0 0 0 64.19 64.19 11.93 11.93 0 0 0 3.93-0.67l276.61-96a12 12 0 1 0-7.87-22.67l-274.57 95.29a40.24 40.24 0 0 1-38.29-40.14v-561.56A40.24 40.24 0 0 1 231.59 89a11.93 11.93 0 0 0 3.93-0.67l276.61-96a12 12 0 0 0-3.94-23.33zM516.54-31a12 12 0 0 0-12 12V646.91a12 12 0 0 0 8.07 11.33l276.6 96a12 12 0 0 0 3.94 0.67 64.27 64.27 0 0 0 64.19-64.19v-561.53A64.28 64.28 0 0 0 795.27 65l-274.79-95.4a12.11 12.11 0 0 0-3.94-0.6z m12 669.4v-640.56l260.67 90.49a12 12 0 0 0 3.94 0.67 40.24 40.24 0 0 1 40.19 40.19V690.75A40.24 40.24 0 0 1 795 730.89zM239 537l231.39-80.54M470.39 444.46a11.88 11.88 0 0 0-3.95 0.67l-231.38 80.54a12 12 0 1 0 7.88 22.66l231.39-80.54a12 12 0 0 0-3.94-23.33zM239 412l231.39-80.54M470.39 319.46a11.88 11.88 0 0 0-3.95 0.67l-231.38 80.54a12 12 0 1 0 7.88 22.66l231.39-80.54a12 12 0 0 0-3.94-23.33zM239 287l231.39-80.54M470.39 194.46a11.88 11.88 0 0 0-3.95 0.67l-231.38 80.54a12 12 0 1 0 7.88 22.66l231.39-80.54a12 12 0 0 0-3.94-23.33zM783.98 308.06L563.41 201.4M563.42 189.39a12 12 0 0 0-5.23 22.81l220.56 106.67a12 12 0 1 0 10.45-21.61L568.64 190.59a12.06 12.06 0 0 0-5.22-1.2zM783.98 433.06L563.41 326.4M563.42 314.39a12 12 0 0 0-5.23 22.81l220.56 106.67a12 12 0 1 0 10.45-21.61L568.64 315.59a12.06 12.06 0 0 0-5.22-1.2zM783.98 558.06L563.41 451.4M563.42 439.39a12 12 0 0 0-5.23 22.81l220.56 106.67a12 12 0 1 0 10.45-21.61L568.64 440.59a12.06 12.06 0 0 0-5.22-1.2z"  horiz-adv-x="1024" />

    
    <glyph glyph-name="youxiang" unicode="&#59000;" d="M983.899806 110.614218V671.113777h0.180631l-0.180631 4.696419c-0.180632 5.238314-0.722526 10.476627-1.806315 15.714941-2.890104 25.469042-21.675781 44.977245-45.519139 47.686717H122.287529c-11.741048 0-23.482096-1.625684-34.861881-5.238314-30.346093-10.295996-50.757453-40.100194-50.576821-74.058917v-534.849885c-0.361263-21.314518 5.780208-42.087141 17.701887-59.789028l0.361263-0.722526 5.418946-3.973893c18.243782-21.856412 44.977245-34.319986 73.517022-34.500618H904.421944c37.751984 0 70.265655 27.094726 79.477862 66.291763l0.180631 0.541894c0.361263 5.96084 0.361263 11.741048-0.180631 17.701888zM390.16405 348.505909l55.453872-49.854295 43.893456-40.100194c5.418945-5.96084 13.005468-9.57347 21.133886-9.57347 7.947786 0 15.534309 3.431999 21.133886 9.57347l101.153642 91.941436 272.753572-263.721997H126.622685L390.16405 348.505909z m120.119951-30.346092L111.449638 679.96472H115.604163c214.409596 0.903158 703.559711 2.890104 793.875463 0.361263l-399.195625-362.166166z m165.458458 69.72376l251.619686 227.956959v-474.518963L675.742459 387.883577z m-328.568707-0.180631L93.205856 135.721997V617.104957l253.967896-229.402011z"  horiz-adv-x="1024" />

    
    <glyph glyph-name="icon_dianhua" unicode="&#58903;" d="M700.90624982 68.92187511999998c-1.40625027 0-2.89062488 0.07812515-4.29687515 0.23437464-79.99999969 7.42187467-155.93749969 33.1249996-225.5468747 76.40625009-60.00000018 37.26562527-113.74999969 86.25000037-159.76562475 145.78125045-39.68750005 51.32812473-71.64062485 107.96874995-92.26562559 163.90624961-19.37499995 52.57812469-27.03125005 100.23437467-21.56249926 134.21875012 3.35937497 20.54687476 27.89062509 49.53125033 35.3906249 57.96875034 12.65625 14.21874976 37.96875 39.68750005 65.390625 49.92187444 25.9375004 9.68749997 43.04687503 1.95312469 52.81249933-6.24999984 16.09375012-13.43749988 46.40625-45.70312527 71.01562527-79.06250034 44.60937478-60.5468746 41.01562518-84.06250022 34.3750004-96.48437475-11.48437518-21.64062524-36.09374963-36.24999995-57.81250003-49.21874973-10.78124963-6.40625015-20.9374997-12.42187537-27.89062509-18.35937542-7.03124973-5.93750005-7.10937488-8.5937503-7.10937488-8.74999979 0-5.46874997 2.42187478-21.79687473 25.39062433-53.98437497 16.01562497-22.50000027 38.28124978-47.57812482 64.29687535-72.42187473 23.90624973-22.89062522 49.06250024-43.6718746 70.85937496-58.51562557 31.25000005-21.32812463 41.64062476-21.09375 41.71874991-21.09375 0 0 4.14062485 0.31249978 12.73437515 11.09375024 7.34375033 9.14062473 14.92187531 22.03125018 22.26562481 34.53124987 13.20312524 22.34374997 25.62499978 43.51562512 41.32812498 53.28125025 15.07812478 9.45312533 37.42187476 5.7031246 68.28124987-11.40625003 24.6874996-13.67187533 53.12499995-35.15625027 76.17187546-57.50000024 11.79687497-11.48437518 21.32812463-22.26562481 28.28125004-32.18749943 9.0625004-12.89062463 13.43749988-23.8281254 13.43749987-33.4375002 0-28.0468754-28.51562467-66.56249982-56.79687469-92.34374991-15.07812478-13.98437512-43.74999976-36.32812509-70.70312549-36.3281251z m-468.75000009 514.92187464c-4.45312463-27.65624963 2.7343754-70.07812509 19.84375003-116.40624995C271.3749997 414.78124997 301.53125009 361.34375023999996 339.03125 312.82812523999996c54.60937537-70.46875003 174.06249967-191.3281246 360.78125015-208.74999984 8.4375-0.78124987 26.56249997 7.26562519 48.12500007 26.95312491 12.73437515 11.56250033 24.45312497 25.1562497 33.04687445 38.28124978 8.98437524 13.74999967 12.26562505 23.43749963 12.26562506 27.96875024-0.31249978 2.57812509-4.8437504 13.04687495-22.34374997 31.640625-14.6093747 15.46874973-34.06249978 32.10937509-53.35937458 45.6249993-34.92187482 24.45312497-52.96874963 27.89062509-57.18750045 27.26562552-8.35937485-5.7031246-19.92187519-25.23437485-29.2187494-41.01562518-18.59375006-31.56249985-36.09374963-61.3281253-63.35937515-62.89062506-5.31249967-0.31249978-21.64062524-1.24999997-62.50000013 26.48437482-22.89062522 15.54687487-49.29687488 37.18750012-74.37500024 60.93750036-30.93750027 29.3749997-102.81249976 103.04687522-102.57812512 153.90624986 0.07812515 26.17187503 26.56249997 41.87500022 52.18750058 57.10937529 17.57812473 10.46874985 37.42187476 22.26562481 44.53124964 34.99999998 0.6250004 4.45312463-4.37500031 23.67187509-34.2187501 63.43749948-22.34374997 29.76562463-48.82812478 57.81250003-62.42187496 69.21875006-1.56249976 1.32812512-5.7031246 4.76562524-17.81250018 0.31250061-14.6093747-5.39062482-33.82812515-20.39062527-51.40624989-40.078125-17.57812473-19.84375003-26.32812533-36.09374963-27.03125005-40.39062561zM793.32812488 197.28125033000003z"  horiz-adv-x="1024" />

    
    <glyph glyph-name="youjiantou_huaban" unicode="&#58942;" d="M459.265625 199.4296875c-6.74835205 0-13.49670411 2.57080078-18.63830567 7.72888184-10.29968262 10.29968262-10.29968262 26.98516846 1e-8 37.28485107L580.18389893 384 440.62731933 523.56481934c-10.29968262 10.29968262-10.29968262 26.98516846 1e-8 37.28485107s26.98516846 10.29968262 37.28485107 0l148.88397217-148.88397217c15.42480469-15.42480469 15.42480469-40.5065918 0-55.93139648l-148.89221192-148.87573243c-5.14160156-5.15808106-11.88995362-7.72888184-18.63830566-7.72888183z m130.23742676 175.25115967h0.25543212-0.25543213zM512 700.40625c174.46838379 0 316.40625-141.93786622 316.40625-316.40625S686.46838379 67.59375 512 67.59375 195.59375 209.53161621000004 195.59375 384s141.93786622 316.40625 316.40625 316.40625m0 52.734375C308.13220214 753.140625 142.859375 587.86779786 142.859375 384s165.27282715-369.140625 369.140625-369.140625 369.140625 165.27282715 369.140625 369.140625S715.86779786 753.140625 512 753.140625z"  horiz-adv-x="1024" />

    
    <glyph glyph-name="renyuanzhanghu" unicode="&#58895;" d="M576 336c-59.8 0-116.1 23.3-158.4 65.6C375.3 443.9 352 500.2 352 560s23.3 116.1 65.6 158.4C459.9 760.7 516.2 784 576 784s116.1-23.3 158.4-65.6C776.7 676.1 800 619.8 800 560s-23.3-116.1-65.6-158.4C692.1 359.3 635.8 336 576 336z m0 384c-88.2 0-160-71.8-160-160s71.8-160 160-160 160 71.8 160 160-71.8 160-160 160zM928-16c-17.7 0-32 14.3-32 32 0 176.4-143.6 320-320 320S256 192.4 256 16c0-17.7-14.3-32-32-32s-32 14.3-32 32c0 51.8 10.2 102.1 30.2 149.5 19.3 45.7 47 86.8 82.3 122 35.3 35.3 76.3 62.9 122 82.3 47.4 20 97.7 30.2 149.5 30.2s102.1-10.2 149.5-30.2c45.7-19.3 86.8-47 122-82.3 35.3-35.3 62.9-76.3 82.3-122 20-47.4 30.2-97.7 30.2-149.5 0-17.7-14.3-32-32-32zM320 343.6c-1.8 0-3.5 0.1-5.3 0.4-38.4 6.4-73.5 26.4-98.9 56.1-25.7 30.1-39.8 68.4-39.8 108s14.1 78 39.8 108c25.4 29.7 60.5 49.6 98.9 56.1 17.4 2.9 33.9-8.8 36.9-26.3 2.9-17.4-8.8-33.9-26.3-36.9-49.4-8.3-85.3-50.8-85.3-101s35.9-92.7 85.3-101c17.4-2.9 29.2-19.4 26.3-36.9-2.7-15.4-16.2-26.5-31.6-26.5zM96 95.3c-17.7 0-32 14.3-32 32 0 69.9 26 136.8 73.3 188.3 47 51.2 110.8 82.8 179.8 89 17.6 1.6 33.2-11.4 34.7-29s-11.4-33.2-29-34.7C211.8 330.8 128 239 128 127.3c0-17.6-14.3-32-32-32z"  horiz-adv-x="1024" />

    


  </font>
</defs>
</svg>
